# xmcd
#
# Track frame offsets:
#	150
#	17180
#	38785
#	59416
#	73221
#	99477
#	118607
#	128962
#	142542
#	160922
#	184027
#	199033
#	215687
#	235826
#	262981
#	283837
#	304436
#
# Disc length: 4371 seconds
#
# Revision: 0
# Processed by: cddbd v1.5.1PL0 Copyright (c) Steve Scherf et al.
# Submitted via: dBpowerAMP V4.0
#
DISCID=fd111111
DTITLE=Riblja Corba - Ovde
DYEAR=1900
DGENRE=
TTITLE0=Mobilni
TTITLE1=Govnovalj
TTITLE2=Poslednja pesma o tebi
TTITLE3=Plajvaz
TTITLE4=Ovde
TTITLE5=100 godina samoce
TTITLE6=Ko o cemu
TTITLE7=Ja sam rodjen namrgodjen
TTITLE8=Mrtvo more
TTITLE9=Novi svetski poredak
TTITLE10=Zasto uvek kurcu sviram
TTITLE11=Pickin dim
TTITLE12=Ljubav ovde vise ne stanuje
TTITLE13=Dusa nije na prodaju
TTITLE14=Vreme ti isteklo
TTITLE15=Princ
TTITLE16=Izgubljen slucaj
EXTD=
EXTT0=
EXTT1=
EXTT2=
EXTT3=
EXTT4=
EXTT5=
EXTT6=
EXTT7=
EXTT8=
EXTT9=
EXTT10=
EXTT11=
EXTT12=
EXTT13=
EXTT14=
EXTT15=
EXTT16=
PLAYORDER=
